<svg id="visual" viewBox="0 0 900 600" width="900" height="600" xmlns="http://www.w3.org/2000/svg" xmlns:xlink="http://www.w3.org/1999/xlink" version="1.1"><rect x="0" y="0" width="900" height="600" fill="#00ac92"></rect><defs><linearGradient id="grad1_0" x1="33.3%" y1="100%" x2="100%" y2="0%"><stop offset="20%" stop-color="#00e27f" stop-opacity="1"></stop><stop offset="80%" stop-color="#00e27f" stop-opacity="1"></stop></linearGradient></defs><defs><linearGradient id="grad1_1" x1="33.3%" y1="100%" x2="100%" y2="0%"><stop offset="20%" stop-color="#00e27f" stop-opacity="1"></stop><stop offset="80%" stop-color="#00d986" stop-opacity="1"></stop></linearGradient></defs><defs><linearGradient id="grad1_2" x1="33.3%" y1="100%" x2="100%" y2="0%"><stop offset="20%" stop-color="#00d18b" stop-opacity="1"></stop><stop offset="80%" stop-color="#00d986" stop-opacity="1"></stop></linearGradient></defs><defs><linearGradient id="grad1_3" x1="33.3%" y1="100%" x2="100%" y2="0%"><stop offset="20%" stop-color="#00d18b" stop-opacity="1"></stop><stop offset="80%" stop-color="#00c88f" stop-opacity="1"></stop></linearGradient></defs><defs><linearGradient id="grad1_4" x1="33.3%" y1="100%" x2="100%" y2="0%"><stop offset="20%" stop-color="#00be91" stop-opacity="1"></stop><stop offset="80%" stop-color="#00c88f" stop-opacity="1"></stop></linearGradient></defs><defs><linearGradient id="grad1_5" x1="33.3%" y1="100%" x2="100%" y2="0%"><stop offset="20%" stop-color="#00be91" stop-opacity="1"></stop><stop offset="80%" stop-color="#00b592" stop-opacity="1"></stop></linearGradient></defs><defs><linearGradient id="grad1_6" x1="33.3%" y1="100%" x2="100%" y2="0%"><stop offset="20%" stop-color="#00ac92" stop-opacity="1"></stop><stop offset="80%" stop-color="#00b592" stop-opacity="1"></stop></linearGradient></defs><defs><linearGradient id="grad2_0" x1="0%" y1="100%" x2="66.7%" y2="0%"><stop offset="20%" stop-color="#00e27f" stop-opacity="1"></stop><stop offset="80%" stop-color="#00e27f" stop-opacity="1"></stop></linearGradient></defs><defs><linearGradient id="grad2_1" x1="0%" y1="100%" x2="66.7%" y2="0%"><stop offset="20%" stop-color="#00d986" stop-opacity="1"></stop><stop offset="80%" stop-color="#00e27f" stop-opacity="1"></stop></linearGradient></defs><defs><linearGradient id="grad2_2" x1="0%" y1="100%" x2="66.7%" y2="0%"><stop offset="20%" stop-color="#00d986" stop-opacity="1"></stop><stop offset="80%" stop-color="#00d18b" stop-opacity="1"></stop></linearGradient></defs><defs><linearGradient id="grad2_3" x1="0%" y1="100%" x2="66.7%" y2="0%"><stop offset="20%" stop-color="#00c88f" stop-opacity="1"></stop><stop offset="80%" stop-color="#00d18b" stop-opacity="1"></stop></linearGradient></defs><defs><linearGradient id="grad2_4" x1="0%" y1="100%" x2="66.7%" y2="0%"><stop offset="20%" stop-color="#00c88f" stop-opacity="1"></stop><stop offset="80%" stop-color="#00be91" stop-opacity="1"></stop></linearGradient></defs><defs><linearGradient id="grad2_5" x1="0%" y1="100%" x2="66.7%" y2="0%"><stop offset="20%" stop-color="#00b592" stop-opacity="1"></stop><stop offset="80%" stop-color="#00be91" stop-opacity="1"></stop></linearGradient></defs><defs><linearGradient id="grad2_6" x1="0%" y1="100%" x2="66.7%" y2="0%"><stop offset="20%" stop-color="#00b592" stop-opacity="1"></stop><stop offset="80%" stop-color="#00ac92" stop-opacity="1"></stop></linearGradient></defs><g transform="translate(900, 600)"><path d="M-540.8 0C-544.1 -37.4 -547.3 -74.7 -530.4 -105.5C-513.6 -136.3 -476.6 -160.4 -454.5 -188.3C-432.5 -216.1 -425.4 -247.7 -409.1 -273.3C-392.8 -299 -367.3 -318.8 -348.6 -348.6C-329.9 -378.4 -317.9 -418.3 -291.1 -435.7C-264.3 -453.1 -222.8 -448.1 -189.4 -457.3C-156.1 -466.5 -130.9 -489.8 -100.7 -506.1C-70.5 -522.4 -35.2 -531.6 0 -540.8L0 0Z" fill="#00b192"></path><path d="M-463.6 0C-466.3 -32 -469.1 -64.1 -454.7 -90.4C-440.2 -116.8 -408.5 -137.5 -389.6 -161.4C-370.7 -185.3 -364.6 -212.3 -350.6 -234.3C-336.7 -256.3 -314.9 -273.2 -298.8 -298.8C-282.8 -324.4 -272.5 -358.5 -249.5 -373.4C-226.6 -388.4 -191 -384.1 -162.4 -392C-133.8 -399.9 -112.2 -419.8 -86.3 -433.8C-60.4 -447.7 -30.2 -455.7 0 -463.6L0 0Z" fill="#00ba92"></path><path d="M-386.3 0C-388.6 -26.7 -390.9 -53.4 -378.9 -75.4C-366.8 -97.3 -340.4 -114.6 -324.7 -134.5C-308.9 -154.4 -303.8 -176.9 -292.2 -195.2C-280.6 -213.6 -262.4 -227.7 -249 -249C-235.6 -270.3 -227.1 -298.8 -207.9 -311.2C-188.8 -323.7 -159.1 -320.1 -135.3 -326.7C-111.5 -333.2 -93.5 -349.9 -71.9 -361.5C-50.3 -373.1 -25.2 -379.7 0 -386.3L0 0Z" fill="#00c390"></path><path d="M-309 0C-310.9 -21.4 -312.7 -42.7 -303.1 -60.3C-293.5 -77.9 -272.3 -91.7 -259.7 -107.6C-247.1 -123.5 -243.1 -141.5 -233.8 -156.2C-224.5 -170.9 -209.9 -182.2 -199.2 -199.2C-188.5 -216.2 -181.7 -239 -166.4 -249C-151.1 -258.9 -127.3 -256.1 -108.2 -261.3C-89.2 -266.6 -74.8 -279.9 -57.5 -289.2C-40.3 -298.5 -20.1 -303.8 0 -309L0 0Z" fill="#00cc8d"></path><path d="M-231.8 0C-233.2 -16 -234.6 -32 -227.3 -45.2C-220.1 -58.4 -204.3 -68.8 -194.8 -80.7C-185.4 -92.6 -182.3 -106.1 -175.3 -117.1C-168.3 -128.1 -157.4 -136.6 -149.4 -149.4C-141.4 -162.2 -136.2 -179.3 -124.8 -186.7C-113.3 -194.2 -95.5 -192.1 -81.2 -196C-66.9 -199.9 -56.1 -209.9 -43.1 -216.9C-30.2 -223.9 -15.1 -227.8 0 -231.8L0 0Z" fill="#00d588"></path><path d="M-154.5 0C-155.4 -10.7 -156.4 -21.4 -151.6 -30.1C-146.7 -38.9 -136.2 -45.8 -129.9 -53.8C-123.6 -61.8 -121.5 -70.8 -116.9 -78.1C-112.2 -85.4 -105 -91.1 -99.6 -99.6C-94.3 -108.1 -90.8 -119.5 -83.2 -124.5C-75.5 -129.5 -63.7 -128 -54.1 -130.7C-44.6 -133.3 -37.4 -139.9 -28.8 -144.6C-20.1 -149.2 -10.1 -151.9 0 -154.5L0 0Z" fill="#00de83"></path><path d="M-77.3 0C-77.7 -5.3 -78.2 -10.7 -75.8 -15.1C-73.4 -19.5 -68.1 -22.9 -64.9 -26.9C-61.8 -30.9 -60.8 -35.4 -58.4 -39C-56.1 -42.7 -52.5 -45.5 -49.8 -49.8C-47.1 -54.1 -45.4 -59.8 -41.6 -62.2C-37.8 -64.7 -31.8 -64 -27.1 -65.3C-22.3 -66.6 -18.7 -70 -14.4 -72.3C-10.1 -74.6 -5 -75.9 0 -77.3L0 0Z" fill="#00e27f"></path></g><g transform="translate(0, 0)"><path d="M540.8 0C539 36.3 537.2 72.6 522.8 104C508.3 135.3 481.2 161.7 469.3 194.4C457.5 227.1 461 266.1 449.7 300.5C438.4 334.9 412.4 364.8 378.3 378.3C344.2 391.8 302 389 272.8 408.3C243.5 427.5 227.2 468.7 199 480.4C170.7 492.2 130.6 474.4 95.4 479.6C60.2 484.8 30.1 512.8 0 540.8L0 0Z" fill="#00b192"></path><path d="M463.6 0C462 31.1 460.5 62.3 448.1 89.1C435.7 116 412.4 138.6 402.3 166.6C392.1 194.6 395.1 228 385.4 257.5C375.8 287 353.5 312.7 324.3 324.3C295 335.9 258.9 333.5 233.8 349.9C208.8 366.4 194.8 401.7 170.6 411.8C146.4 421.9 111.9 406.7 81.8 411.1C51.6 415.5 25.8 439.5 0 463.6L0 0Z" fill="#00ba92"></path><path d="M386.3 0C385 25.9 383.7 51.9 373.4 74.3C363.1 96.7 343.7 115.5 335.2 138.9C326.8 162.2 329.3 190 321.2 214.6C313.2 239.2 294.6 260.5 270.2 270.2C245.9 279.9 215.7 277.9 194.8 291.6C174 305.3 162.3 334.8 142.1 343.2C122 351.5 93.3 338.9 68.1 342.6C43 346.3 21.5 366.3 0 386.3L0 0Z" fill="#00c390"></path><path d="M309 0C308 20.8 307 41.5 298.7 59.4C290.5 77.3 275 92.4 268.2 111.1C261.4 129.8 263.4 152 257 171.7C250.5 191.4 235.7 208.4 216.2 216.2C196.7 223.9 172.6 222.3 155.9 233.3C139.2 244.3 129.9 267.8 113.7 274.5C97.6 281.2 74.6 271.1 54.5 274.1C34.4 277 17.2 293 0 309L0 0Z" fill="#00cc8d"></path><path d="M231.8 0C231 15.6 230.2 31.1 224 44.6C217.8 58 206.2 69.3 201.1 83.3C196.1 97.3 197.6 114 192.7 128.8C187.9 143.5 176.7 156.3 162.1 162.1C147.5 167.9 129.4 166.7 116.9 175C104.4 183.2 97.4 200.9 85.3 205.9C73.2 210.9 56 203.3 40.9 205.5C25.8 207.8 12.9 219.8 0 231.8L0 0Z" fill="#00d588"></path><path d="M154.5 0C154 10.4 153.5 20.8 149.4 29.7C145.2 38.7 137.5 46.2 134.1 55.5C130.7 64.9 131.7 76 128.5 85.8C125.3 95.7 117.8 104.2 108.1 108.1C98.3 112 86.3 111.2 77.9 116.6C69.6 122.1 64.9 133.9 56.9 137.3C48.8 140.6 37.3 135.6 27.3 137C17.2 138.5 8.6 146.5 0 154.5L0 0Z" fill="#00de83"></path><path d="M77.3 0C77 5.2 76.7 10.4 74.7 14.9C72.6 19.3 68.7 23.1 67 27.8C65.4 32.4 65.9 38 64.2 42.9C62.6 47.8 58.9 52.1 54 54C49.2 56 43.1 55.6 39 58.3C34.8 61.1 32.5 67 28.4 68.6C24.4 70.3 18.7 67.8 13.6 68.5C8.6 69.3 4.3 73.3 0 77.3L0 0Z" fill="#00e27f"></path></g></svg>